<?xml version="1.0" encoding="utf-8"?>
<!-- Generator: Adobe Illustrator 24.0.3, SVG Export Plug-In . SVG Version: 6.00 Build 0)  -->
<!DOCTYPE svg PUBLIC "-//W3C//DTD SVG 1.1//EN" "http://www.w3.org/Graphics/SVG/1.1/DTD/svg11.dtd" [
	<!ENTITY ns_extend "http://ns.adobe.com/Extensibility/1.0/">
	<!ENTITY ns_ai "http://ns.adobe.com/AdobeIllustrator/10.0/">
	<!ENTITY ns_graphs "http://ns.adobe.com/Graphs/1.0/">
	<!ENTITY ns_vars "http://ns.adobe.com/Variables/1.0/">
	<!ENTITY ns_imrep "http://ns.adobe.com/ImageReplacement/1.0/">
	<!ENTITY ns_sfw "http://ns.adobe.com/SaveForWeb/1.0/">
	<!ENTITY ns_custom "http://ns.adobe.com/GenericCustomNamespace/1.0/">
	<!ENTITY ns_adobe_xpath "http://ns.adobe.com/XPath/1.0/">
]>
<svg version="1.1" id="Layer_1" xmlns:x="&ns_extend;" xmlns:i="&ns_ai;" xmlns:graph="&ns_graphs;"
	 xmlns="http://www.w3.org/2000/svg" xmlns:xlink="http://www.w3.org/1999/xlink" x="0px" y="0px" viewBox="0 0 1921 300"
	 style="enable-background:new 0 0 1921 1230.8;" xml:space="preserve">
<style type="text/css">
	.st0{fill:#224194;stroke:#224194;}
	.st1{fill:#3D6BBC;stroke:#3D6BBC;}
	.st2{fill:#77ABE2;stroke:#77ABE2;}
	.st3{fill:#214093;stroke:#214093;}
	.st4{fill:#72A6E0;stroke:#72A6E0;}
	.st5{fill:#3D6CBD;stroke:#3D6CBD;}
	.st6{fill:#102264;stroke:#102264;}
	.st7{fill:#061036;stroke:#061036;}
</style>
<metadata>
	<sfw  xmlns="&ns_sfw;">
		<slices></slices>
		<sliceSourceBounds  bottomLeftOrigin="true" height="1230.8" width="1921" x="-0.5" y="-0.5"></sliceSourceBounds>
	</sfw>
</metadata>
<g>
	<path class="st0" d="M332.2,243.1c17.7-4.7,36.3-3.7,54.3-0.8c11.8,2.3,23.1,6.6,34.3,10.8c12.4,4.1,25.1,7.9,38.1,9.8
		c9.3,1.5,18.5,4,27.1,7.9c9.9,4.5,20.1,8.7,29.3,14.6c13.9,8.8,27.2,18.2,41,27.1c15.7,10.3,28.5,24.2,42.4,36.6
		c12.8,11.6,25,24,39.2,33.8c12,8.2,24.6,15.5,37.2,22.8c15.9,9.5,31.6,19.2,47.6,28.4c14.5,9,29.5,17.4,42.7,28.3
		c11.1,9.2,22.2,18.6,34,27c10.6,7.8,21.7,15.3,34.1,19.9c20.7,8,37.4,23,54.7,36.3c12.1,10,25.1,19,39.1,25.9
		c2.8,1.3,5.7,2.3,8.7,3.1c-9.8,13-19.8,25.8-29.6,38.9c-11.2,15.7-22.9,31.1-34.2,46.8c-10.6,14.9-22.4,28.8-34.8,42.2
		c-15,14.1-29.8,28.2-45.4,41.6c-9.9,8.1-19.9,16.2-30,24c-5.9,4.2-11.4,9-18.3,11.6c-11.5-11.1-23.8-21.3-35.5-32.1
		c-12.7-11.3-24.9-23.3-38.9-33.2c-15.6-11.6-32.5-22-51.1-27.9c-10.9-3.8-22.2-6-33.5-8.5c-8.4-2-16.6-4.9-25-6.9
		c-9.8-2.3-19.3-5.8-29.2-7.8c-36.8-7.5-72.4-20.1-109.1-27.9c-11.4-2-22.7-4.2-34.1-5.8c-15.5-2-31-4.7-46.1-8.9
		c-8.5-2.5-17-4.7-25.4-7.4c-12.9-4.2-25-10.4-37.3-15.8c-16-7.9-31.5-16.6-47.3-24.7c-16.8-9.5-34.2-18.1-50.5-28.4
		c-12.3-8.1-24.4-16.8-37.6-23.4c-18.2-10.4-38.3-16.7-58.4-22c6-4.6,9.2-11.7,13.8-17.5c8.2-12.3,17-24.2,25.8-36.1
		c10.3-14.8,22-28.7,33.3-42.7c10.8-12.6,20.7-25.9,31.7-38.3c7.9-9.1,16.4-17.7,24.1-27c10.6-12,21.4-23.9,32.3-35.7
		c6.6-7.2,13.1-14.5,20.1-21.3c7-6.6,14.5-12.7,22.3-18.3C301.2,252.4,316.4,246.2,332.2,243.1z"/>
	<path class="st1" d="M550.2,274c11.1-1.1,22.2,1.2,33.2,2.5c7.6,0.9,15.3,1.4,22.9,2.9c9.7,1.8,18.9,5.7,28.2,8.8
		c16.5,5.7,32.8,12.7,46.9,23.2c5.9,6.1,12.6,11.3,18.5,17.5c16.8,17.3,34,34.7,54.8,47.2c9.2,6.5,18.2,13.3,28,19
		c13.4,8.6,28.7,13.5,42.4,21.6c9.4,5.1,19,10.6,29.8,12.2c8.5,1.2,17.1,1.5,25.6,1.7c16.7-0.1,31.4-8.9,46.6-14.7
		c9.6-3.6,18.7-8.4,27.7-13.3c10.3-5.8,18.9-14.2,29.5-19.5c9.9-5.5,20.8-8.5,31.1-12.9c20.7-8.4,43.3-10.6,64-18.9
		c10.2-3.9,20.2-8.5,31.2-9.9c9.9-1.1,19.3-4.2,29-6.1c8.8-1.7,17.4-3.9,26.2-5.7c10.5-2,21.1-3.7,31.6-5.6
		c12.7-2.4,25.6-2.5,38.4-4.3c6.5-0.3,13.1,0.2,19.6-0.7c4.4-0.6,8.7-1.9,13.1-2.8c8.3-1.7,16.9-1.4,25-4c6.9-2.2,13.8-4.6,20.8-6.2
		c11.2-2.9,22.9-3.3,34.4-4.2c10.2-0.3,20.4-1.4,30.6-2.2l1-0.1c9.5-0.1,19.3-0.6,28.5,2.5c6.9,1.7,12.8,5.9,19.5,8.2
		c-15.1,5.2-28.1,14.7-41.7,23c-10.1,6.4-20.2,13-29.4,20.6c-5.6,4.5-11.6,8.5-16.8,13.5c-9.3-1.1-18.4-3.8-27.4-6.2
		c-20.6-5.4-40.1-14.7-61.3-18c-20.3-2.7-41.3-3.9-61.4,0.8c-17.2,3.4-34.3,8.3-49.4,17.6c-15.6,9.6-30.3,20.8-43.2,33.9
		c-13.3,13.4-26.3,27.1-39.3,40.7c-9.7,10-18.8,20.6-28.2,30.8c-12.1,12.5-24.3,25.1-35.5,38.5c-19.5,23-39.6,45.5-58.3,69.2
		c-3-0.8-5.9-1.8-8.7-3.1c-14-7-27-16-39.1-25.9c-17.3-13.3-34-28.3-54.7-36.3c-12.4-4.6-23.5-12.1-34.1-19.9
		c-11.8-8.3-22.9-17.7-34-27c-13.2-10.9-28.1-19.4-42.7-28.3c-16-9.3-31.7-19-47.6-28.4c-12.6-7.2-25.2-14.6-37.2-22.8
		c-14.3-9.8-26.5-22.2-39.2-33.8c-13.9-12.4-26.7-26.3-42.4-36.6c-13.8-8.8-27.2-18.4-41-27.1C526.5,280.4,538,275.7,550.2,274z"/>
	<path class="st2" d="M1217.8,308.1c-8.5-3.7-15.7-9.7-23.6-14.4c-8.3-5.1-16.1-11.1-25-15c-11-4.8-20.8-12-30.1-19.5
		c-7.9-7.4-18.2-11.4-27.2-17.2c-9.3-5.9-21.2-3-30.7-8.3c-8.7-4.7-17.2-10-27.1-11.9c-7.9-1.4-15.9-1.3-23.8-2.2
		c-6.3-0.6-12.7-0.9-18.9,0.6c-13.2,2.9-26.7,5.1-39,11.1c-8.1,4.1-14.3,11-20.5,17.5c-9.5,9.6-18.5,19.9-25.5,31.5
		c-4.2,6.7-8.3,13.5-13.5,19.5c-6.8,7.9-14.7,14.6-21.6,22.4c-7.7,9.3-14.4,19.5-22.1,28.9c-8.6,9.5-19.3,17.3-31.4,21.7
		c-6.5,2.4-14,2.7-20.3-0.4c-4.8-2.3-9.2-5.5-14-7.9c-7.4-3.7-14.1-8.5-21.2-12.9c-8-4.9-15.1-11-22.9-16.1
		c-6.2-4.2-12.9-8.2-17.9-13.9c-16.6-14.4-33.3-28.7-48.9-44.2c-10.2-10.9-22.2-20-34-29c-7.3-5.2-14.5-10.7-20.9-17.1
		c-12.6-12.5-24.5-25.9-34.2-40.9c-7.1-11.3-13.8-22.9-19.7-35c-4.7-9.4-9-19.1-14-28.3c-4.2-7.6-9.4-14.5-14.2-21.8
		c-8-12.1-17.8-22.9-28.2-32.9c-3.7-4.1-7.6-8.1-11.9-11.6c-9.2-8.9-19.7-17.1-32.4-20c-11.3-2.3-22.9-2.6-34-5.9
		c-11.5-3-21.6-10.8-33.8-11.2c-15.2-0.2-29.6,6.4-41.8,14.9c-13.1,10.2-23.6,23.3-33.8,36.3c-7.3,9.3-14.5,18.6-22.5,27.4
		c-9.9,12.6-20.6,24.9-33.4,34.8c-6.4,4.9-12.4,10.2-18.5,15.5c-0.7,0.9-1.4,1.9-2.1,2.8c-5.5,3.5-10.4,7.9-16,11.1
		c-7.8,4.5-15.7,8.9-23.2,13.8c-9.3,6.6-16.6,15.6-23.4,24.6c-7.9,10.3-16.9,19.9-27.8,27.2c-9,7.2-18.3,13.9-28.3,19.6
		c-8.5,5.5-18,10.6-28.4,10.2c-10.6-0.5-21.9-0.3-31.4-5.9c-13.8-6.7-25.2-17.1-36.4-27.2c-7.2-6.3-14.1-12.9-21.3-19.1
		c-6.7-5.8-11.5-13.3-16.6-20.4c-3.2-4.5-7.1-8.6-10.2-13.2v105.6v209.1c5,0.1,10.1,0.1,15.1,0.2c5.9-0.4,11.9,0.5,17.7-0.5
		c5.8-2.5,10-7.4,14.8-11.4c8-7.4,16.2-14.4,24.2-21.8c14.1-12.7,25.1-28.2,37.9-42.2c6.9-6.8,13.5-13.9,20.2-20.8
		c9.6-9.9,20.4-18.5,31.9-26.1c6.7-4.6,12.9-10,20-13.9c10.2-5.8,20.4-12,31.1-17c10.6-12,21.4-23.9,32.3-35.7
		c6.6-7.2,13.1-14.5,20.1-21.3c7-6.6,14.5-12.7,22.3-18.3c13.1-9.5,28.3-15.7,44.1-18.8c17.7-4.7,36.3-3.7,54.3-0.8
		c11.8,2.3,23.1,6.6,34.3,10.8c12.4,4.1,25.1,7.9,38.1,9.8c9.3,1.5,18.5,4,27.1,7.9c9.9,4.5,20.1,8.7,29.3,14.6
		c11.2-5,22.7-9.6,34.8-11.4c11.1-1.1,22.2,1.2,33.2,2.5c7.6,0.9,15.3,1.4,22.9,2.9c9.7,1.8,18.9,5.7,28.2,8.8
		c16.5,5.7,32.8,12.7,46.9,23.2c5.9,6.1,12.6,11.3,18.5,17.5c16.8,17.3,34,34.7,54.8,47.2c9.2,6.5,18.2,13.3,28,19
		c13.4,8.6,28.7,13.5,42.4,21.6c9.4,5.1,19,10.6,29.8,12.2c8.5,1.2,17.1,1.5,25.6,1.7c16.7-0.1,31.4-8.9,46.6-14.7
		c9.6-3.6,18.7-8.4,27.7-13.3c10.3-5.8,18.9-14.2,29.5-19.5c9.9-5.5,20.8-8.5,31.1-12.9c20.7-8.4,43.3-10.6,64-18.9
		c10.2-3.9,20.2-8.5,31.2-9.9c9.9-1.1,19.3-4.2,29-6.1c8.8-1.7,17.4-3.9,26.2-5.7c10.5-2,21.1-3.7,31.6-5.6
		c12.7-2.4,25.6-2.5,38.4-4.3C1230.7,314.6,1224.4,311,1217.8,308.1z"/>
	<path class="st3" d="M1877.8,398.1c-18.1-3.9-36.8-5-54.5-10.6c-7.8-2.4-15.8-4.4-23.3-7.7c-9.4-4.1-18.7-8.3-27.6-13.4
		c-22.5-12.6-45.7-24.2-66.7-39.2c-8-5.7-16.7-10.3-25.4-14.7c-18.3-7.6-37.7-13.5-57.6-14.9c-11.7-1-23.4-0.3-35.1-1.1
		c-11.3-0.6-22.4-3.2-33.4-5.7c-11.2-3-22.9-5.6-34.6-4.5c-6,0.5-12.1,1.3-18.1,1.9c-6.1,1-12.3,2-18.2,3.9l-0.7,0.2
		c-18.1,6.1-37,9.9-54.3,18c-15.1,5.2-28.1,14.7-41.7,23c-10.1,6.4-20.2,13-29.4,20.6c-5.6,4.5-11.6,8.5-16.8,13.5
		c18.9,2.5,36.9,9,54,17.2c15.2,6.3,28.8,15.8,42.6,24.5c16.1,10.9,33.4,20,48.3,32.7c12.3,10,23.4,21.3,35.6,31.4
		c19,17,38.2,34,60.6,46.5c17.7,10.4,35.7,20.3,53.5,30.5c8.3,4.1,15.7,9.9,24.3,13.5c15-13.5,30.6-26.4,45.8-39.7
		c14.3-11.8,28.8-23.7,44.7-33.3c9.4-5.7,18.5-11.9,28.5-16.5c8.9-4.1,18.1-7.5,27.3-10.8c13.3-4.4,26.5-9.5,40.5-11.6
		c14.1-2.2,28.3-4.5,42.6-4.7c10.8,0.3,21.5,1.8,32,3.8v-41.2C1906.4,405.4,1892.2,401.1,1877.8,398.1z"/>
	<path class="st4" d="M1900,51.9c-7-3.8-12.8-9.3-19.6-13.4c-10.7-6.5-20-15.1-31.2-20.7c-11.3-4.8-22.6-9.6-34-14
		c-1.3-0.4-2.5-0.8-3.8-1.2c-9.2-1.7-18.6-2-27.9-2.1c-7.4-0.1-13.8,4-19.2,8.6c-8.1,6.6-13.8,15.5-20.3,23.5
		c-11.2,14.8-22.5,29.5-34.5,43.6c-8.3,9.6-18.1,17.8-25.7,28.1c-1.4,1.8-2.9,3.5-4.3,5.3c-10.5,13.1-19.4,27.4-30.7,39.9
		c-11.1,11.9-23.7,22.4-34.1,35c-8.5,11.7-17.5,23.3-28.9,32.4c-4.7,4.6-9.7,8.9-15.1,12.7c-6.5,4.7-11.3,11.3-17.9,16
		c-0.4-1.8-8.4,13.1-12.1,14c-2.7,1.2-4.2,3.9-6,6.1c-5,7-10.4,13.6-15.3,20.7c11.7-1.1,23.4,1.5,34.6,4.5c11,2.5,22.1,5.1,33.4,5.7
		c11.7,0.8,23.4,0,35.1,1.1c19.9,1.4,39.2,7.2,57.6,14.8c8.7,4.4,17.4,9.1,25.4,14.7c21,15,44.2,26.6,66.7,39.2
		c8.9,5.1,18.2,9.3,27.6,13.4c7.5,3.3,15.5,5.3,23.3,7.7c17.7,5.6,36.4,6.7,54.5,10.6c14.4,3,28.6,7.3,42.7,11.5V302.3V106V67.1
		C1914.1,61.5,1907.5,55.9,1900,51.9z"/>
	<path class="st5" d="M182.3,354.1c10.2-5.8,20.4-12,31.1-17c-7.7,9.3-16.2,17.8-24.1,27c-11.1,12.4-20.9,25.7-31.7,38.3
		c-11.4,14-23,27.9-33.3,42.7c-8.8,11.9-17.6,23.8-25.8,36.1c-4.5,5.9-7.8,12.9-13.8,17.5c-9.6-3-19.7-4.1-29.6-5.6
		c-13-1.9-26.3-1.9-39.4-2.3c5.9-0.4,11.9,0.5,17.7-0.5c5.8-2.5,10-7.4,14.8-11.4c8-7.4,16.2-14.4,24.2-21.8
		c14.1-12.7,25.1-28.2,37.9-42.2c6.9-6.8,13.5-13.9,20.2-20.8c9.6-9.9,20.4-18.5,31.9-26.1C169,363.4,175.2,358.1,182.3,354.1z"/>
	<path class="st6" d="M1190.1,344c20.2-4.7,41.1-3.5,61.4-0.8c21.2,3.3,40.7,12.6,61.3,18c9.1,2.4,18.1,5.1,27.4,6.2
		c18.9,2.5,36.9,9,54,17.2c15.2,6.3,28.8,15.8,42.6,24.5c16.1,10.9,33.4,20,48.3,32.7c12.3,10,23.4,21.3,35.6,31.4
		c19,17,38.2,34,60.6,46.5c17.7,10.4,35.7,20.3,53.5,30.5c8.3,4.1,15.7,9.9,24.3,13.5c-12.4,10-24.7,20.2-36.7,30.8
		c-14,11.8-28.8,22.5-42.9,34.2c-7.5,5.9-15.2,11.5-22.9,17.1c-14.1,9.5-28.7,18.2-43.7,26.3c-8.9,5.1-18.2,9.7-26.9,15.2
		c-9.9,6-19.4,12.8-29.7,18.3c-13.2,7.8-26.9,14.8-40.9,21.1c-8.8,3.8-18,6.5-26.7,10.4c-16.7,6.7-33.7,12.9-49.6,21.3
		c-9.4,5.5-18.8,11-27.5,17.5c-27,21.2-51.3,46.1-80.7,64.3c-16.7,10.1-34.7,17.7-51.8,27.2c-14.7,8.2-29.9,15.2-45.5,21.5
		c-17.9,8.2-36.3,15.3-55.2,20.7c-11.2,2.7-22.5,5.5-34.1,5.1c-24.3-0.1-48.7-0.7-72.8-4.4c-17.8-4.2-35.1-10.7-51.8-18.2
		c-17.3-7.2-33.6-16.8-49.7-26.3c-16.5-9.3-31.7-20.6-48.2-29.8c-12.8-8.7-26.3-16.3-39.5-24.4c-14.4-8.5-26.6-20.2-38.6-31.8
		c6.8-2.6,12.4-7.4,18.3-11.6c10.2-7.8,20.1-15.9,30-24c15.6-13.3,30.4-27.5,45.4-41.6c12.4-13.4,24.2-27.3,34.8-42.2
		c11.3-15.7,23-31.1,34.2-46.8c9.7-13.1,19.7-25.9,29.6-38.9c18.7-23.7,38.9-46.2,58.3-69.2c11.2-13.4,23.4-25.9,35.5-38.5
		c9.4-10.2,18.6-20.8,28.2-30.8c13.1-13.6,26-27.3,39.3-40.7c12.9-13,27.5-24.3,43.2-33.9C1155.8,352.3,1172.9,347.3,1190.1,344z"/>
	<path class="st7" d="M1888.5,446.9c-14.3,0.2-28.5,2.5-42.6,4.7c-13.9,2.1-27.2,7.2-40.5,11.6c-9.2,3.3-18.4,6.8-27.3,10.8
		c-10,4.5-19.1,10.8-28.5,16.5c-15.9,9.6-30.4,21.5-44.7,33.3c-15.2,13.2-30.8,26.1-45.8,39.7c-12.4,10-24.7,20.2-36.7,30.8
		c-14,11.8-28.8,22.5-42.9,34.2c-7.5,5.9-15.2,11.5-22.9,17.1c-14.1,9.5-28.7,18.2-43.7,26.3c-8.9,5.1-18.2,9.7-26.9,15.2
		c-9.9,6-19.4,12.8-29.7,18.3c-13.2,7.8-26.9,14.8-40.9,21.1c-8.8,3.8-18,6.5-26.7,10.4c-16.7,6.7-33.7,12.9-49.6,21.3
		c-9.4,5.5-18.8,11-27.5,17.5c-27,21.2-51.3,46.1-80.7,64.3c-16.7,10.1-34.7,17.7-51.8,27.2c-14.7,8.2-29.9,15.2-45.5,21.5
		c-17.9,8.2-36.3,15.3-55.2,20.7c-11.2,2.7-22.5,5.5-34.1,5.1c-24.3-0.1-48.7-0.7-72.8-4.4c-17.8-4.2-35.1-10.7-51.8-18.2
		c-17.3-7.2-33.6-16.8-49.7-26.3c-16.5-9.3-31.7-20.6-48.2-29.8c-12.8-8.7-26.3-16.3-39.5-24.4c-14.4-8.5-26.6-20.2-38.6-31.8
		c-11.5-11.1-23.8-21.3-35.5-32.1c-12.7-11.3-24.9-23.3-38.9-33.2c-15.6-11.6-32.5-22-51.1-27.9c-10.9-3.8-22.2-6-33.5-8.5
		c-8.4-2-16.6-4.9-25-6.9c-9.8-2.3-19.3-5.8-29.2-7.8c-36.8-7.5-72.4-20.1-109.1-27.9c-11.4-2-22.7-4.2-34.1-5.8
		c-15.5-2-31-4.7-46.1-8.9c-8.5-2.5-17-4.7-25.4-7.4c-12.9-4.2-25-10.4-37.3-15.8c-16-7.9-31.5-16.6-47.3-24.7
		c-16.8-9.5-34.2-18.1-50.5-28.4c-12.3-8.1-24.4-16.8-37.6-23.4c-18.2-10.4-38.3-16.7-58.4-22c-9.6-3-19.7-4.1-29.6-5.6
		c-13-1.9-26.3-1.9-39.4-2.3c-5-0.1-10.1-0.1-15.1-0.2v562.2v177.5h1920v-200.1V450.8C1910,448.7,1899.2,447.2,1888.5,446.9z"/>
</g>
</svg>
